<?xml version="1.0" encoding="UTF-8"?>
<svg version="1.1" xmlns="http://www.w3.org/2000/svg" width="24" height="24">
<path d="M0 0 C3.125 1.875 3.125 1.875 5 5 C5.98876625 10.02622846 5.7769173 13.70513784 3.125 18.125 C-1.29486216 20.7769173 -4.97377154 20.98876625 -10 20 C-13.125 18.125 -13.125 18.125 -15 15 C-15.98876625 9.97377154 -15.7769173 6.29486216 -13.125 1.875 C-8.70513784 -0.7769173 -5.02622846 -0.98876625 0 0 Z M-10.375 4.625 C-12.48706506 7.71186432 -12.61195145 9.3282913 -12 13 C-10.5 15.5 -10.5 15.5 -8 17 C-4.3282913 17.61195145 -2.71186432 17.48706506 0.375 15.375 C2.48706506 12.28813568 2.61195145 10.6717087 2 7 C0.5 4.5 0.5 4.5 -2 3 C-5.6717087 2.38804855 -7.28813568 2.51293494 -10.375 4.625 Z " fill="#000000" transform="translate(17,2)"/>
<path d="M0 0 C0.66 0 1.32 0 2 0 C2 0.99 2 1.98 2 3 C2.99 3 3.98 3 5 3 C5 3.66 5 4.32 5 5 C4.01 5 3.02 5 2 5 C2 5.99 2 6.98 2 8 C1.34 8 0.68 8 0 8 C0 7.01 0 6.02 0 5 C-0.99 5 -1.98 5 -3 5 C-3 4.34 -3 3.68 -3 3 C-2.01 3 -1.02 3 0 3 C0 2.01 0 1.02 0 0 Z " fill="#000000" transform="translate(11,8)"/>
</svg>
