<?xml version="1.0" encoding="UTF-8"?>
<svg version="1.1" xmlns="http://www.w3.org/2000/svg" width="24" height="24">
<path d="M0 0 C2.97 0 5.94 0 9 0 C9 3.63 9 7.26 9 11 C6.03 11 3.06 11 0 11 C0 7.37 0 3.74 0 0 Z M2 2 C2 4.31 2 6.62 2 9 C3.65 9 5.3 9 7 9 C7 6.69 7 4.38 7 2 C5.35 2 3.7 2 2 2 Z " fill="#000000" transform="translate(13,11)"/>
<path d="M0 0 C2.97 0 5.94 0 9 0 C9 3.63 9 7.26 9 11 C6.03 11 3.06 11 0 11 C0 7.37 0 3.74 0 0 Z M2 2 C2 4.31 2 6.62 2 9 C3.65 9 5.3 9 7 9 C7 6.69 7 4.38 7 2 C5.35 2 3.7 2 2 2 Z " fill="#000000" transform="translate(2,2)"/>
<path d="M0 0 C2.97 0 5.94 0 9 0 C9 2.31 9 4.62 9 7 C6.03 7 3.06 7 0 7 C0 4.69 0 2.38 0 0 Z M2 2 C2 2.99 2 3.98 2 5 C3.65 5 5.3 5 7 5 C7 4.01 7 3.02 7 2 C5.35 2 3.7 2 2 2 Z " fill="#000000" transform="translate(2,15)"/>
<path d="M0 0 C2.97 0 5.94 0 9 0 C9 2.31 9 4.62 9 7 C6.03 7 3.06 7 0 7 C0 4.69 0 2.38 0 0 Z M2 2 C2 2.99 2 3.98 2 5 C3.65 5 5.3 5 7 5 C7 4.01 7 3.02 7 2 C5.35 2 3.7 2 2 2 Z " fill="#000000" transform="translate(13,2)"/>
</svg>
