<?xml version="1.0" encoding="UTF-8"?>
<svg version="1.1" xmlns="http://www.w3.org/2000/svg" width="512" height="512">
<path d="M0 0 C0.90295807 -0.00100708 1.80591614 -0.00201416 2.73623657 -0.00305176 C18.49819177 0.00877802 33.89223524 0.90098837 49.5 3.25 C50.44713867 3.38921875 51.39427734 3.5284375 52.37011719 3.671875 C107.77338575 12.0846033 161.54169455 35.43443521 204.85546875 71.07421875 C206.94374989 72.79234666 209.05008113 74.47368697 211.17578125 76.14453125 C219.62116527 82.85228102 227.5282781 89.96669392 235.1875 97.5625 C236.44312744 98.79758301 236.44312744 98.79758301 237.72412109 100.05761719 C247.08439501 109.48798423 253.70091391 118.43826545 254 132 C253.93155578 142.01605713 251.13078349 149.86225026 244.1875 157.25 C236.82003903 163.97311208 228.79295242 167.15609933 218.76953125 167.28515625 C202.29366835 166.33239126 193.46955408 156.26950011 182.51342773 145.21826172 C181.82837158 144.52748535 181.14331543 143.83670898 180.4375 143.125 C179.75179932 142.43293457 179.06609863 141.74086914 178.35961914 141.02783203 C173.01700265 135.67434226 167.49932219 130.86553693 161.5 126.25 C160.54480469 125.47785156 159.58960938 124.70570313 158.60546875 123.91015625 C106.65892708 82.5489476 38.32791064 64.44081142 -27.375 71.4375 C-59.75126119 75.28002444 -90.72124582 84.97779639 -119.5 100.25 C-120.20833984 100.61818848 -120.91667969 100.98637695 -121.64648438 101.36572266 C-138.76120469 110.28939523 -154.11096978 121.41578573 -168.5 134.25 C-169.47324219 135.11238281 -170.44648438 135.97476563 -171.44921875 136.86328125 C-176.67030511 141.56479348 -181.6849535 146.41305638 -186.56640625 151.46875 C-187.47197266 152.39896973 -188.37753906 153.32918945 -189.31054688 154.28759766 C-191.10056349 156.13319498 -192.87742772 157.99167162 -194.63867188 159.86474609 C-203.16843585 168.64413782 -211.88120087 173.66567464 -224.1875 174.5 C-233.95399591 174.29536866 -242.28865983 170.79081205 -249.5 164.25 C-251.90482481 161.42407718 -253.76070664 158.521938 -255.5 155.25 C-256.00853516 154.36441406 -256.00853516 154.36441406 -256.52734375 153.4609375 C-260.03573824 146.12079419 -259.55967417 136.05637926 -257.84375 128.2734375 C-254.42929121 118.76593586 -246.35889392 111.97656727 -239.3125 105.0625 C-235.11528365 100.94279457 -231.13606898 96.88292385 -227.5 92.25 C-226.32458008 91.1310413 -225.11607125 90.04566854 -223.875 89 C-220.86947716 86.4395363 -217.95339049 83.81397139 -215.0625 81.125 C-207.92176607 74.68627371 -200.20336197 68.99004322 -192.5 63.25 C-191.90171387 62.79979492 -191.30342773 62.34958984 -190.68701172 61.88574219 C-136.13496939 20.95989582 -67.86278472 0.05270475 0 0 Z " fill="#030104" transform="translate(258.5,62.75)"/>
<path d="M0 0 C1.11375 0.94359375 1.11375 0.94359375 2.25 1.90625 C15.7681312 13.46207183 30.54212061 26.57082075 32.203125 45.2890625 C32.44331696 57.25862875 28.95570712 66.02653575 21 75 C13.43701552 82.30532769 3.48923351 86.12772278 -7 86 C-23.77426239 84.65228308 -33.75211092 74.43287123 -44.875 63 C-68.22832557 39.4976899 -98.45740389 26.45486166 -131.6875 25.6875 C-167.94881229 25.91053673 -198.14174743 41.94681619 -223.17578125 67.19433594 C-223.94277344 67.97325195 -224.70976562 68.75216797 -225.5 69.5546875 C-226.28600586 70.35068359 -227.07201172 71.14667969 -227.88183594 71.96679688 C-229.41938373 73.53034032 -230.94918095 75.10155759 -232.46972656 76.68164062 C-241.7582298 86.16652697 -251.0132988 91.79328116 -264.5625 92.375 C-274.71863116 91.95182787 -283.29358041 88.27856326 -290.75 81.5 C-298.72602956 72.63774493 -302.77489924 63.94268434 -302.51855469 51.86743164 C-301.64454276 35.45608605 -290.62052813 25.2828993 -279.58203125 14.3762207 C-277.99676635 12.80930378 -276.41974278 11.23444032 -274.84375 9.65820312 C-211.28342213 -53.69586323 -114.37428988 -70.58403085 0 0 Z " fill="#030104" transform="translate(394,238)"/>
<path d="M0 0 C1.28003906 0.49113281 1.28003906 0.49113281 2.5859375 0.9921875 C16.54335946 7.02425945 27.25070005 20.23032432 33 34 C38.62734791 49.90134409 38.05202168 66.61588671 31 82 C22.54772194 98.87870817 9.36609989 108.67456466 -8.1640625 114.75 C-23.20367179 118.93089525 -40.57763993 116.03829228 -54.0859375 108.78515625 C-68.73162808 99.81319835 -79.25797978 86.08975633 -83.375 69.25 C-86.12199723 51.5948199 -83.49746108 34.771131 -73 20 C-55.87867711 -2.14951809 -26.19804167 -11.14339237 0 0 Z " fill="#030104" transform="translate(281,333)"/>
</svg>
