<?xml version="1.0" encoding="UTF-8"?>
<svg version="1.1" xmlns="http://www.w3.org/2000/svg" width="385" height="68">
<path d="M0 0 C3.63 0 7.26 0 11 0 C11.01981934 0.82725586 11.03963867 1.65451172 11.06005859 2.50683594 C11.15531212 6.25487806 11.26499109 10.00236317 11.375 13.75 C11.4059375 15.05195313 11.436875 16.35390625 11.46875 17.6953125 C11.50742187 18.94570313 11.54609375 20.19609375 11.5859375 21.484375 C11.6173584 22.63647461 11.6487793 23.78857422 11.68115234 24.97558594 C11.98401175 27.84834422 12.5088238 29.56179611 14 32 C18.34363544 31.48898407 21.98331946 30.70656894 26 29 C25.86164197 24.54140138 25.71305421 20.08320214 25.5625 15.625 C25.52318359 14.35398437 25.48386719 13.08296875 25.44335938 11.7734375 C25.40146484 10.56171875 25.35957031 9.35 25.31640625 8.1015625 C25.27974854 6.98088379 25.24309082 5.86020508 25.20532227 4.70556641 C25.17403987 2.03287229 25.17403987 2.03287229 24 0 C27.63 0 31.26 0 35 0 C35.0991017 6.01394883 35.17157916 12.02741915 35.21972656 18.04199219 C35.2398042 20.0866728 35.26707225 22.13129627 35.30175781 24.17578125 C35.35044519 27.11993537 35.37300744 30.06332834 35.390625 33.0078125 C35.41127014 33.9174173 35.43191528 34.82702209 35.45318604 35.76419067 C35.45515318 41.3665498 34.75024277 44.55672073 31 49 C26.72347212 52.87560339 22.81450585 53.31090122 17.09375 53.21484375 C13.60895426 52.8572621 11.02400599 51.71953282 8 50 C6.0625 47.3125 6.0625 47.3125 5 45 C8 43 8 43 11 43 C12.04892238 44.63631892 13.04906703 46.30485863 14 48 C16.28705831 49.14352916 17.59264762 49.10334439 20.125 49.0625 C22.043125 49.0315625 22.043125 49.0315625 24 49 C25.06723961 45.53777385 25.10173486 42.35960734 25.0625 38.75 C25.05347656 37.67234375 25.04445313 36.5946875 25.03515625 35.484375 C25.02355469 34.66453125 25.01195312 33.8446875 25 33 C24.46246094 33.32226562 23.92492187 33.64453125 23.37109375 33.9765625 C18.81878605 35.9414795 13.8545975 35.5312829 9 35 C5.57957726 33.22138017 4.47551882 32.06090481 2.91796875 28.5859375 C1.61366667 23.49083404 1.57095746 18.49064666 1.4375 13.25 C1.37772185 11.17175536 1.31411528 9.09361617 1.24609375 7.015625 C1.22216553 6.10071289 1.1982373 5.18580078 1.17358398 4.24316406 C1.13894225 1.96382372 1.13894225 1.96382372 0 0 Z " fill="#FFFFFF" transform="translate(320,15)"/>
<path d="M0 0 C2.53685688 2.2059625 4.49488222 3.98976444 6 7 C6.08510205 8.9593604 6.10717656 10.92162794 6.09765625 12.8828125 C6.09443359 14.04941406 6.09121094 15.21601562 6.08789062 16.41796875 C6.07532227 18.25294922 6.07532227 18.25294922 6.0625 20.125 C6.05798828 21.35605469 6.05347656 22.58710937 6.04882812 23.85546875 C6.0370133 26.90369392 6.02054028 29.95182314 6 33 C3.36 33 0.72 33 -2 33 C-2.495 30.525 -2.495 30.525 -3 28 C-4.0828125 29.2375 -4.0828125 29.2375 -5.1875 30.5 C-9.30732141 33.95946726 -13.71778957 33.5603272 -18.87890625 33.56640625 C-22.60838569 32.88959208 -24.30064223 31.6114944 -27 29 C-28.74580224 25.50839553 -28.56983131 21.80954642 -28 18 C-26.28152985 14.61297378 -23.91903291 12.49486387 -20.5625 10.6875 C-14.94330524 9.17991116 -9.78199473 8.90031044 -4 9 C-5.46323248 5.26062809 -6.25054536 3.39101981 -9.875 1.5 C-13.47753406 0.92359455 -14.91355192 1.08139714 -18 3 C-19.82619087 5.51364756 -19.82619087 5.51364756 -21 8 C-22.98 7.34 -24.96 6.68 -27 6 C-25.60415208 2.62670085 -24.07634389 0.95767338 -21 -1 C-14.39285812 -3.20238063 -6.37968157 -2.67946626 0 0 Z M-16.625 13.8125 C-19.18158562 17.8797953 -19.32566995 21.27778575 -19 26 C-17.63002843 28.87146994 -17.63002843 28.87146994 -16 31 C-11.79064851 30.75239109 -9.52372173 30.41897739 -6.1875 27.75 C-2.29375085 22.85500107 -1.63970359 19.24513773 -2 13 C-3.72584734 11.27415266 -5.96209367 11.7466493 -8.3125 11.6875 C-12.77553725 11.69171705 -12.77553725 11.69171705 -16.625 13.8125 Z " fill="#FFFFFF" transform="translate(313,17)"/>
<path d="M0 0 C2.56678578 1.79675004 4.06782351 2.96521239 5.5 5.75 C6 8.6875 6 8.6875 5.5 11.75 C0.63909136 17.89761975 -5.3860652 19.95384311 -12.875 21.4375 C-14.12023437 21.68886719 -15.36546875 21.94023438 -16.6484375 22.19921875 C-17.58945313 22.38097656 -18.53046875 22.56273438 -19.5 22.75 C-16.6204024 27.32748509 -16.6204024 27.32748509 -12.5 30.75 C-9.54230823 31.25010524 -9.54230823 31.25010524 -6.5 30.75 C-4.25 29 -4.25 29 -2.5 26.75 C-1.5 25.75 -0.5 24.75 0.5 23.75 C2.15 24.74 3.8 25.73 5.5 26.75 C4.54276125 29.52599238 3.54654399 30.71477752 1.1875 32.5 C-5.57146928 34.79117603 -13.38869721 35.12899499 -20 32.125 C-24.24126602 29.61431399 -27.2886986 26.1726028 -29.5 21.75 C-30.0238576 16.49424835 -30.16505372 12.10473905 -27.8125 7.3125 C-20.33854257 -0.96945283 -10.71714406 -3.82755145 0 0 Z M-18.5 5.75 C-20.47930634 8.91689015 -20.72244944 11.29692136 -20.625 15 C-20.60695312 15.89203125 -20.58890625 16.7840625 -20.5703125 17.703125 C-20.54710937 18.37859375 -20.52390625 19.0540625 -20.5 19.75 C-12.62676514 18.82771514 -12.62676514 18.82771514 -5.25 16.125 C-3.07180773 13.16888192 -2.83261796 11.26937231 -3.08203125 7.65625 C-3.42917392 5.53728766 -3.42917392 5.53728766 -5.125 3.25 C-10.46957224 -0.12551931 -14.28582662 1.53582662 -18.5 5.75 Z " fill="#FFFFFF" transform="translate(218.5,16.25)"/>
<path d="M0 0 C2.47701037 1.73390726 3.98604313 3.14262983 5.5 5.75 C5.5 6.41 5.5 7.07 5.5 7.75 C3.85 8.08 2.2 8.41 0.5 8.75 C0.005 7.780625 -0.49 6.81125 -1 5.8125 C-3.66446225 2.4997685 -3.66446225 2.4997685 -7.4375 1.6875 C-10.30552828 1.54302843 -11.67822995 1.81825828 -14.4375 2.875 C-16.63115423 4.61763388 -16.63115423 4.61763388 -17.5625 7.125 C-17.68882785 9.81701949 -17.68882785 9.81701949 -16.25 12.1875 C-12.87855277 15.32907582 -9.26835814 17.15465998 -5.19921875 19.2734375 C-0.46937938 21.86081707 3.42829789 24.61255037 5.5 29.75 C6.17336584 34.56534876 6.22619338 38.50509707 3.75 42.75 C-1.28702568 47.22735616 -5.71100373 47.17727241 -12.2890625 47.06640625 C-16.82610416 46.6193255 -18.98342318 45.6414076 -22.5 42.75 C-23.9375 40 -23.9375 40 -24.5 37.75 C-22.025 37.255 -22.025 37.255 -19.5 36.75 C-19.0875 37.53375 -18.675 38.3175 -18.25 39.125 C-16.39792505 41.90311242 -15.63091509 42.76599812 -12.5 43.75 C-7.89673967 44.23970855 -5.14177054 43.66341643 -1.5 40.75 C-0.33333333 38.91666667 -0.33333333 38.91666667 -0.5 36.75 C-2.75385033 31.64070771 -6.17428713 29.84888851 -10.875 27.3125 C-16.64373557 24.19715745 -21.93355641 21.10298144 -24.27734375 14.58984375 C-24.62881678 10.41502998 -24.70574048 7.35939351 -22.5 3.75 C-16.08736821 -2.16935242 -8.14021769 -2.9072206 0 0 Z " fill="#FFFFFF" transform="translate(250.5,3.25)"/>
<path d="M0 0 C9.9 0 19.8 0 30 0 C30 0.99 30 1.98 30 3 C23.73 2.67 17.46 2.34 11 2 C11 8.93 11 15.86 11 23 C14.96 23 18.92 23 23 23 C23 23.66 23 24.32 23 25 C19.04 25 15.08 25 11 25 C11 31.93 11 38.86 11 46 C17.27 45.67 23.54 45.34 30 45 C30 45.99 30 46.98 30 48 C20.76 48 11.52 48 2 48 C1.93941406 44.70257813 1.87882812 41.40515625 1.81640625 38.0078125 C1.75464737 34.82403193 1.69124703 31.640288 1.62768555 28.45654297 C1.58429922 26.23912803 1.54262692 24.02167888 1.50268555 21.80419922 C1.44507246 18.62196528 1.38135236 15.43990416 1.31640625 12.2578125 C1.29969376 11.26194122 1.28298126 10.26606995 1.26576233 9.24002075 C1.24581711 8.31921722 1.22587189 7.3984137 1.20532227 6.44970703 C1.18977798 5.6369632 1.1742337 4.82421936 1.15821838 3.98684692 C1.11897586 1.92561733 1.11897586 1.92561733 0 0 Z " fill="#FFFFFF" transform="translate(104,2)"/>
<path d="M0 0 C3.63 0 7.26 0 11 0 C11 4.95 11 9.9 11 15 C14.63 15 18.26 15 22 15 C22 15.99 22 16.98 22 18 C18.37 18 14.74 18 11 18 C11.14029459 22.12525788 11.28697311 26.25011392 11.4375 30.375 C11.47681641 31.550625 11.51613281 32.72625 11.55664062 33.9375 C11.61948242 35.61972656 11.61948242 35.61972656 11.68359375 37.3359375 C11.72025146 38.37282715 11.75690918 39.4097168 11.79467773 40.47802734 C11.84164223 42.99425166 11.84164223 42.99425166 13 45 C15.42267086 45.05167527 15.42267086 45.05167527 18 44 C19.86983745 40.52692672 19.86983745 40.52692672 21 37 C22.65 37.33 24.3 37.66 26 38 C25.69547975 41.34972271 25.4048916 43.47740736 23.3203125 46.16796875 C19.65755716 49.05994224 16.43844297 48.60580032 11.92578125 48.45703125 C7.48629234 47.76354633 5.87400659 46.41773757 3 43 C1.53861385 39.12630237 1.79202525 34.92801046 1.71875 30.83984375 C1.69113586 29.66041954 1.69113586 29.66041954 1.66296387 28.45716858 C1.58448919 25.10073074 1.51652583 21.74409963 1.44775391 18.38745117 C1.39598195 15.93398286 1.33876059 13.48068316 1.28125 11.02734375 C1.26767456 10.26791977 1.25409912 9.50849579 1.2401123 8.72605896 C1.16559925 5.57211423 1.00433954 3.01301863 0 0 Z " fill="#FFFFFF" transform="translate(162,2)"/>
<path d="M0 0 C3.63 0 7.26 0 11 0 C11 4.95 11 9.9 11 15 C14.63 15 18.26 15 22 15 C22 15.99 22 16.98 22 18 C18.37 18 14.74 18 11 18 C11.14029459 22.12525788 11.28697311 26.25011392 11.4375 30.375 C11.47681641 31.550625 11.51613281 32.72625 11.55664062 33.9375 C11.61948242 35.61972656 11.61948242 35.61972656 11.68359375 37.3359375 C11.72025146 38.37282715 11.75690918 39.4097168 11.79467773 40.47802734 C11.84164223 42.99425166 11.84164223 42.99425166 13 45 C14.98 45 16.96 45 19 45 C19.66 42.36 20.32 39.72 21 37 C22.98 37.33 24.96 37.66 27 38 C25.80618721 42.37731357 24.91397956 45.51796418 21 48 C16.1237595 48.66973056 11.65393258 48.58576779 7 46.9375 C2.65737008 42.73057727 1.66810253 37.57762453 1.53329468 31.76945496 C1.53004181 31.02440201 1.52678894 30.27934906 1.5234375 29.51171875 C1.50785797 28.72730911 1.49227844 27.94289948 1.47622681 27.13471985 C1.42905616 24.65232206 1.40104485 22.17020135 1.375 19.6875 C1.33847383 17.18713923 1.29789653 14.68693445 1.25234985 12.1867218 C1.2251762 10.63651214 1.20380192 9.08618772 1.18881226 7.53581238 C1.20592138 3.63969025 1.20592138 3.63969025 0 0 Z " fill="#FFFFFF" transform="translate(256,2)"/>
<path d="M0 0 C2.625 1.6875 2.625 1.6875 4.625 4.6875 C4.625 6.0075 4.625 7.3275 4.625 8.6875 C2.975 8.6875 1.325 8.6875 -0.375 8.6875 C-0.74625 7.718125 -1.1175 6.74875 -1.5 5.75 C-3.07319135 2.43117194 -3.07319135 2.43117194 -6.3125 1.75 C-8.96318998 1.69590429 -10.89026371 1.82739898 -13.375 2.6875 C-12.98572936 6.42091841 -12.98572936 6.42091841 -10.640625 9.203125 C-8.28670846 10.74534618 -5.92563369 11.93911086 -3.375 13.125 C3.63240184 16.60803012 3.63240184 16.60803012 5.625 19.6875 C6.2309496 23.85340348 6.1118705 25.90502955 3.875 29.5 C-0.00189333 33.26920185 -2.93230215 33.97964616 -8.3125 34 C-9.33214844 34.01675781 -10.35179687 34.03351562 -11.40234375 34.05078125 C-14.78304145 33.63763422 -16.63988113 32.68064513 -19.375 30.6875 C-21.11023928 28.04332586 -21.375 26.90284057 -21.375 23.6875 C-19.725 23.6875 -18.075 23.6875 -16.375 23.6875 C-15.715 25.6675 -15.055 27.6475 -14.375 29.6875 C-12.75085622 29.88227739 -11.12563577 30.06809458 -9.5 30.25 C-8.59507812 30.35441406 -7.69015625 30.45882812 -6.7578125 30.56640625 C-4.35846943 30.88424852 -4.35846943 30.88424852 -2.375 29.6875 C-2.299561 27.31159001 -2.299561 27.31159001 -3.375 24.6875 C-5.85032412 23.07469932 -8.10204716 21.80772689 -10.75 20.5625 C-12.11442926 19.89823839 -13.4765042 19.22911452 -14.8359375 18.5546875 C-15.44228027 18.26706543 -16.04862305 17.97944336 -16.67333984 17.68310547 C-20.10087127 15.67772912 -21.23713702 14.18380674 -22.3125 10.3125 C-22.375 6.6875 -22.375 6.6875 -20.875 3.9375 C-14.69569092 -1.62387817 -7.71861062 -3.00168191 0 0 Z " fill="#FFFFFF" transform="translate(379.375,16.3125)"/>
<path d="M0 0 C3.63 0 7.26 0 11 0 C11 15.84 11 31.68 11 48 C8.03 48 5.06 48 2 48 C1.97494385 46.61699707 1.9498877 45.23399414 1.92407227 43.80908203 C1.83009694 38.69147021 1.72985233 33.57399727 1.62768555 28.45654297 C1.58429922 26.23912803 1.54262692 24.02167888 1.50268555 21.80419922 C1.44507246 18.62196528 1.38135236 15.43990416 1.31640625 12.2578125 C1.29969376 11.26194122 1.28298126 10.26606995 1.26576233 9.24002075 C1.24581711 8.31921722 1.22587189 7.3984137 1.20532227 6.44970703 C1.18977798 5.6369632 1.1742337 4.82421936 1.15821838 3.98684692 C1.11897586 1.92561733 1.11897586 1.92561733 0 0 Z " fill="#FFFFFF" transform="translate(136,2)"/>
<path d="M0 0 C2.475 0.495 2.475 0.495 5 1 C5 1.99 5 2.98 5 4 C4.01 4.495 4.01 4.495 3 5 C3.18820313 5.67804687 3.37640625 6.35609375 3.5703125 7.0546875 C4.52404084 11.90392598 4.82317783 14.75875154 2.015625 18.9921875 C-0.56200348 21.68420778 -2.84017143 24.01486274 -6 26 C-10.42429728 26.0341381 -12.76667514 23.90824327 -15.875 20.9375 C-19.83483697 16.81321797 -19.83483697 16.81321797 -20.4609375 13.73046875 C-20.04608927 9.5896688 -18.94712807 7.94712807 -16 5 C-13.36 6.65 -10.72 8.3 -8 10 C-7.01 9.01 -6.02 8.02 -5 7 C-2.3125 5.8125 -2.3125 5.8125 0 5 C0 3.35 0 1.7 0 0 Z " fill="#FFFFFF" transform="translate(59,22)"/>
<path d="M0 0 C1.64574566 -0.02688151 3.29161413 -0.04634123 4.9375 -0.0625 C5.85402344 -0.07410156 6.77054688 -0.08570313 7.71484375 -0.09765625 C10 0 10 0 11 1 C11.08847743 3.52094076 11.11527301 6.01430893 11.09765625 8.53515625 C11.0962413 9.28840683 11.09482635 10.04165741 11.09336853 10.81773376 C11.08775376 13.2326956 11.07519883 15.64756601 11.0625 18.0625 C11.0574869 19.69596221 11.05292366 21.32942586 11.04882812 22.96289062 C11.03777954 26.97529585 11.02050506 30.98763241 11 35 C8.03 35 5.06 35 2 35 C1.97494385 34.04633545 1.9498877 33.0926709 1.92407227 32.11010742 C1.82987929 28.57090893 1.72968769 25.03190125 1.62768555 21.49291992 C1.58438167 19.96138982 1.54270333 18.42981285 1.50268555 16.89819336 C1.44487268 14.69630818 1.38121031 12.49465789 1.31640625 10.29296875 C1.29969376 9.60849167 1.28298126 8.92401459 1.26576233 8.21879578 C1.1726445 5.22879896 0.95312563 2.85937689 0 0 Z " fill="#FFFFFF" transform="translate(150,15)"/>
<path d="M0 0 C5.81316339 0.29065817 10.13978949 3.07307323 15 6 C15 6.66 15 7.32 15 8 C15.66 8 16.32 8 17 8 C17 7.34 17 6.68 17 6 C18.90881434 4.96455826 20.82739204 3.94709915 22.75 2.9375 C23.81734375 2.36902344 24.8846875 1.80054688 25.984375 1.21484375 C29 0 29 0 31.2421875 -0.07421875 C34.11513976 1.6814743 34.43666497 4.10340283 35.375 7.25 C35.91253906 8.95929687 35.91253906 8.95929687 36.4609375 10.703125 C37.04631446 14.28325656 36.67403859 15.84188464 35 19 C34.01 19 33.02 19 32 19 C32.04125 17.989375 32.0825 16.97875 32.125 15.9375 C31.99426157 11.81923948 31.26749214 8.88169467 30 5 C29.37351563 5.28875 28.74703125 5.5775 28.1015625 5.875 C27.28429688 6.24625 26.46703125 6.6175 25.625 7 C24.81289063 7.37125 24.00078125 7.7425 23.1640625 8.125 C21 9 21 9 19 9 C18.67 10.32 18.34 11.64 18 13 C15.525 12.505 15.525 12.505 13 12 C13 11.01 13 10.02 13 9 C9.68885166 7.87119943 6.41021743 6.78697325 3 6 C0.33409063 10.55426184 -0.31563182 13.73946963 0 19 C-1.32 18.67 -2.64 18.34 -4 18 C-5.5411298 14.04963563 -4.39859394 11.23429099 -3.125 7.3125 C-2.75632813 6.15363281 -2.38765625 4.99476562 -2.0078125 3.80078125 C-1 1 -1 1 0 0 Z " fill="#FFFFFF" transform="translate(35,12)"/>
<path d="M0 0 C2.6203189 0.92634097 5.00374706 2.16594283 7.4375 3.5 C8.07365234 3.83386719 8.70980469 4.16773438 9.36523438 4.51171875 C10.91693107 5.32840122 12.45947571 6.1624334 14 7 C12.94790916 13.89119499 9.99576401 20.3338153 6 26 C2.86315707 27.44165523 0.38420945 27.5371761 -3 27 C-3 26.01 -3 25.02 -3 24 C0.465 23.505 0.465 23.505 4 23 C4.50692692 21.4188708 5.00526443 19.83498617 5.5 18.25 C5.7784375 17.36828125 6.056875 16.4865625 6.34375 15.578125 C7.16445285 12.79732471 7.16445285 12.79732471 7 9 C5.4470724 8.12855131 3.88214564 7.27846343 2.3125 6.4375 C1.44238281 5.96183594 0.57226562 5.48617188 -0.32421875 4.99609375 C-4.3938573 3.48111881 -7.00775802 4.66925267 -11 6 C-10.6875 4.125 -10.6875 4.125 -10 2 C-6.22741017 -0.51505989 -4.48342542 -0.40800562 0 0 Z " fill="#FFFFFF" transform="translate(88,23)"/>
<path d="M0 0 C2 2 2 2 2 5 C1.29875 4.649375 0.5975 4.29875 -0.125 3.9375 C-4.20411266 2.60735457 -7.09374926 3.05071788 -10.9375 4.96484375 C-12.64940599 5.93469372 -14.32777869 6.96322279 -16 8 C-15.86722656 8.59167969 -15.73445312 9.18335938 -15.59765625 9.79296875 C-14.68994822 13.85446525 -13.7908887 17.91374171 -13 22 C-10.69 22.33 -8.38 22.66 -6 23 C-6 23.99 -6 24.98 -6 26 C-7.2375 25.938125 -8.475 25.87625 -9.75 25.8125 C-10.44609375 25.77769531 -11.1421875 25.74289063 -11.859375 25.70703125 C-15.97585227 24.34739186 -17.63462158 20.69862556 -19.5546875 17.02734375 C-19.99039062 16.00769531 -20.42609375 14.98804687 -20.875 13.9375 C-21.32617188 12.91527344 -21.77734375 11.89304687 -22.2421875 10.83984375 C-23 8 -23 8 -22.5859375 5.83984375 C-20.17047152 3.03766523 -17.1151985 1.93620018 -13.75 0.625 C-13.09386719 0.34011719 -12.43773437 0.05523438 -11.76171875 -0.23828125 C-7.13915095 -2.08547037 -4.47278382 -2.18345956 0 0 Z " fill="#FFFFFF" transform="translate(23,24)"/>
<path d="M0 0 C7.07403834 0.3215472 12.97386577 3.41663627 19 7 C20.4783226 9.95664519 20.06032783 12.74229737 20 16 C19.01 15.67 18.02 15.34 17 15 C16.97099609 13.84951172 16.97099609 13.84951172 16.94140625 12.67578125 C16.22726289 9.65601205 16.22726289 9.65601205 12.83984375 8.41796875 C11.5459218 7.98666143 10.24455843 7.57718995 8.9375 7.1875 C8.27427734 6.97158203 7.61105469 6.75566406 6.92773438 6.53320312 C5.29111532 6.00336242 3.64622994 5.4991794 2 5 C1.70609375 5.91523437 1.4121875 6.83046875 1.109375 7.7734375 C0.27482156 10.20069505 -0.6058214 12.34743695 -1.75 14.625 C-3.34220728 17.80969895 -3.34220728 17.80969895 -2.1875 20.25 C-1.795625 20.8275 -1.40375 21.405 -1 22 C-1 22.99 -1 23.98 -1 25 C-3.33028092 24.06788763 -4.75891532 23.30996602 -6.3125 21.3125 C-8.60520208 13.60068393 -3.52698045 6.56859663 0 0 Z " fill="#FFFFFF" transform="translate(30,0)"/>
<path d="M0 0 C1.01085436 2.39175361 2.00879203 4.78761585 3 7.1875 C3.28617188 7.86103516 3.57234375 8.53457031 3.8671875 9.22851562 C5.38003432 12.92058226 6.57181595 15.99728832 6 20 C4 22.8125 4 22.8125 2 25 C1.01 24.67 0.02 24.34 -1 24 C-0.67 23.46375 -0.34 22.9275 0 22.375 C1.30313788 19.28004754 1.39369845 17.34643685 1 14 C-0.17757514 11.54757177 -1.57039344 9.32311066 -3 7 C-3 6.34 -3 5.68 -3 5 C-4.95893905 5.64399373 -6.91713364 6.29025241 -8.875 6.9375 C-9.96554688 7.29714844 -11.05609375 7.65679688 -12.1796875 8.02734375 C-14.90758682 8.89914074 -14.90758682 8.89914074 -17 10 C-17.72693904 11.97888961 -18.39816251 13.97954558 -19 16 C-19.66 16 -20.32 16 -21 16 C-21.49108482 9.61589735 -21.49108482 9.61589735 -19.35546875 6.9375 C-16.70228771 4.7551156 -14.23951289 3.54804814 -11.0625 2.25 C-10.04285156 1.82203125 -9.02320313 1.3940625 -7.97265625 0.953125 C-5.10264147 0.03291001 -2.98543044 -0.19792909 0 0 Z " fill="#FFFFFF" transform="translate(73,0)"/>
<path d="M0 0 C2.45703125 1.7421875 2.45703125 1.7421875 4.8125 3.875 C5.99779297 4.92300781 5.99779297 4.92300781 7.20703125 5.9921875 C9 8 9 8 9 11 C6.41414795 11.16236745 3.83848046 11.28095486 1.25 11.375 C0.15558594 11.45041016 0.15558594 11.45041016 -0.9609375 11.52734375 C-3.109375 11.5859375 -3.109375 11.5859375 -7 11 C-10.95957162 6.45542169 -10.95957162 6.45542169 -11.0625 2.75 C-8.47144052 -1.51762738 -4.30372679 -1.28536268 0 0 Z " fill="#FFFFFF" transform="translate(39,39)"/>
<path d="M0 0 C2.42089018 0.45511206 4.49886503 0.89889424 6.72265625 1.96484375 C7.05265625 2.95484375 7.38265625 3.94484375 7.72265625 4.96484375 C6.40265625 7.27484375 5.08265625 9.58484375 3.72265625 11.96484375 C-1.88734375 11.96484375 -7.49734375 11.96484375 -13.27734375 11.96484375 C-11.83440758 10.25345434 -10.38665356 8.54580144 -8.91015625 6.86328125 C-7.53243343 5.26143127 -6.23803973 3.58846816 -4.96484375 1.90234375 C-2.27734375 -0.03515625 -2.27734375 -0.03515625 0 0 Z " fill="#FFFFFF" transform="translate(66.27734375,38.03515625)"/>
<path d="M0 0 C6.19518473 0.41588046 11.26689311 1.60251894 17 4 C16.73392436 10.25277751 14.5481431 15.5625418 10 20 C7.296875 20.25390625 7.296875 20.25390625 5 20 C5 19.34 5 18.68 5 18 C5.598125 17.443125 6.19625 16.88625 6.8125 16.3125 C9.57705642 13.38996893 10.56174818 10.73945473 12 7 C7.30172858 5.36106811 2.99861936 4 -2 4 C-1.34 2.68 -0.68 1.36 0 0 Z " fill="#FFFFFF" transform="translate(72,30)"/>
<path d="M0 0 C0.33 1.32 0.66 2.64 1 4 C0.13375 3.938125 -0.7325 3.87625 -1.625 3.8125 C-5.44199033 4.02455502 -7.71077536 5.12044307 -11 7 C-10.57576756 8.46224799 -10.13509755 9.91973412 -9.6875 11.375 C-9.44386719 12.18710937 -9.20023438 12.99921875 -8.94921875 13.8359375 C-8.08631815 16.33184629 -8.08631815 16.33184629 -5 18 C-5 18.66 -5 19.32 -5 20 C-7.1875 20.5 -7.1875 20.5 -10 20 C-12.05637435 17.54637151 -13.52669651 14.83287829 -15 12 C-15.56654297 11.00226562 -15.56654297 11.00226562 -16.14453125 9.984375 C-17 8 -17 8 -17 4 C-11.15439723 1.36536213 -6.45512034 -0.56131481 0 0 Z " fill="#FFFFFF" transform="translate(30,30)"/>
<path d="M0 0 C0.99 0.33 1.98 0.66 3 1 C3 1.66 3 2.32 3 3 C3.99 3.33 4.98 3.66 6 4 C5.67 4.66 5.34 5.32 5 6 C4.34 6 3.68 6 3 6 C2.67 6.99 2.34 7.98 2 9 C1.34 9 0.68 9 0 9 C-1.38232443 7.37373596 -2.71937515 5.7074998 -4 4 C-2.68 2.68 -1.36 1.36 0 0 Z " fill="#FFFFFF" transform="translate(155,5)"/>
<path d="M0 0 C1.65 0 3.3 0 5 0 C4.67 1.65 4.34 3.3 4 5 C2.68 4.67 1.36 4.34 0 4 C0 2.68 0 1.36 0 0 Z " fill="#FFFFFF" transform="translate(38,22)"/>
<path d="M0 0 C0.99 0.33 1.98 0.66 3 1 C3 2.32 3 3.64 3 5 C1.35 4.67 -0.3 4.34 -2 4 C-2 3.01 -2 2.02 -2 1 C-1.34 0.67 -0.68 0.34 0 0 Z " fill="#FFFFFF" transform="translate(24,37)"/>
<path d="M0 0 C2.475 0.495 2.475 0.495 5 1 C4.34 2.32 3.68 3.64 3 5 C2.01 4.67 1.02 4.34 0 4 C0 2.68 0 1.36 0 0 Z " fill="#FFFFFF" transform="translate(75,38)"/>
</svg>
