<?xml version="1.0" encoding="UTF-8"?>
<svg version="1.1" xmlns="http://www.w3.org/2000/svg" width="102" height="51">
<path d="M0 0 C4.21912747 0.4794463 6.79663178 1.16625119 10 4 C11.36125 3.01 11.36125 3.01 12.75 2 C16 0 16 0 20 0 C21.60915995 3.52003739 22.51664642 6.13366797 22 10 C19.98828125 12.7109375 19.98828125 12.7109375 17.3125 15.375 C16.44238281 16.26960938 15.57226562 17.16421875 14.67578125 18.0859375 C12 20 12 20 9.47265625 20.04296875 C4.57668943 17.9778453 1.04146899 14.29304694 -2 10 C-2.63114022 6.27627272 -1.6894509 3.37890179 0 0 Z " fill="#FFFFFF" transform="translate(41,28)"/>
<path d="M0 0 C4.66140584 0.56768407 7.87867782 2.53236269 11.81640625 4.94140625 C14.19544469 6.29082267 14.19544469 6.29082267 18 6 C20.87570562 4.5410023 23.5862969 2.88522399 26.34375 1.21484375 C29 0 29 0 31.1953125 -0.07421875 C34.11964731 1.66645673 34.42641579 4.06903339 35.375 7.25 C35.91253906 8.95929687 35.91253906 8.95929687 36.4609375 10.703125 C37.04631446 14.28325656 36.67403859 15.84188464 35 19 C34.01 19 33.02 19 32 19 C32.04125 17.96875 32.0825 16.9375 32.125 15.875 C32.00424851 12.13170373 31.35127982 9.46265453 30 6 C26.37 6.99 22.74 7.98 19 9 C19 10.32 19 11.64 19 13 C16.03 12.505 16.03 12.505 13 12 C13 11.01 13 10.02 13 9 C9.7 8.01 6.4 7.02 3 6 C2.30093058 7.59915881 1.61610532 9.20455045 0.9375 10.8125 C0.55464844 11.70582031 0.17179687 12.59914063 -0.22265625 13.51953125 C-1.29461205 16.0919236 -1.29461205 16.0919236 0 19 C-1.32 18.67 -2.64 18.34 -4 18 C-5.5411298 14.04963563 -4.39859394 11.23429099 -3.125 7.3125 C-2.75632813 6.15363281 -2.38765625 4.99476562 -2.0078125 3.80078125 C-1 1 -1 1 0 0 Z " fill="#FFFFFF" transform="translate(35,12)"/>
<path d="M0 0 C5.26723236 1.3511596 9.96145691 4.07216636 14.6953125 6.69140625 C14.06976409 10.55715486 12.90450121 13.76894036 11.2578125 17.31640625 C10.82597656 18.25742187 10.39414063 19.1984375 9.94921875 20.16796875 C8.6953125 22.69140625 8.6953125 22.69140625 6.6953125 25.69140625 C4.53125 26.203125 4.53125 26.203125 2.0703125 26.37890625 C1.25304687 26.44464844 0.43578125 26.51039062 -0.40625 26.578125 C-1.34597656 26.63419922 -1.34597656 26.63419922 -2.3046875 26.69140625 C-2.3046875 25.70140625 -2.3046875 24.71140625 -2.3046875 23.69140625 C1.1603125 23.19640625 1.1603125 23.19640625 4.6953125 22.69140625 C5.20223942 21.11027705 5.70057693 19.52639242 6.1953125 17.94140625 C6.47375 17.0596875 6.7521875 16.17796875 7.0390625 15.26953125 C7.85976535 12.48873096 7.85976535 12.48873096 7.6953125 8.69140625 C1.8709083 4.94707272 1.8709083 4.94707272 -4.75 3.8046875 C-7.16318116 4.39649469 -7.16318116 4.39649469 -10.3046875 5.69140625 C-9.9921875 3.81640625 -9.9921875 3.81640625 -9.3046875 1.69140625 C-5.85143837 -0.61075984 -4.03570283 -0.52610647 0 0 Z " fill="#FFFFFF" transform="translate(87.3046875,23.30859375)"/>
<path d="M0 0 C2.4375 1.3125 2.4375 1.3125 4 3 C4 3.99 4 4.98 4 6 C0 5 0 5 -1.8125 4.3125 C-4.91029368 3.86995805 -6.52857297 4.96936174 -9.25 6.4375 C-10.14203125 6.91058594 -11.0340625 7.38367188 -11.953125 7.87109375 C-12.96632813 8.42990234 -12.96632813 8.42990234 -14 9 C-13.17136308 16.17380437 -13.17136308 16.17380437 -11 23 C-7.48599332 24.54086322 -7.48599332 24.54086322 -4 25 C-4 25.66 -4 26.32 -4 27 C-11.45493674 26.38893961 -11.45493674 26.38893961 -13.5546875 24.890625 C-15.63442029 22.17010967 -16.96229575 19.18504872 -18.3125 16.0625 C-18.60189453 15.44181641 -18.89128906 14.82113281 -19.18945312 14.18164062 C-20.3507678 11.51544386 -21.13116705 9.6246562 -20.5234375 6.73046875 C-15.93220944 1.51530457 -6.76162357 -1.12693726 0 0 Z " fill="#FFFFFF" transform="translate(21,23)"/>
<path d="M0 0 C7.07403834 0.3215472 12.97386577 3.41663627 19 7 C20.4783226 9.95664519 20.06032783 12.74229737 20 16 C19.01 15.67 18.02 15.34 17 15 C16.97099609 13.84951172 16.97099609 13.84951172 16.94140625 12.67578125 C16.22726289 9.65601205 16.22726289 9.65601205 12.83984375 8.41796875 C11.5459218 7.98666143 10.24455843 7.57718995 8.9375 7.1875 C8.27427734 6.97158203 7.61105469 6.75566406 6.92773438 6.53320312 C5.29111532 6.00336242 3.64622994 5.4991794 2 5 C1.70609375 5.91523437 1.4121875 6.83046875 1.109375 7.7734375 C0.27482156 10.20069505 -0.6058214 12.34743695 -1.75 14.625 C-3.34220728 17.80969895 -3.34220728 17.80969895 -2.1875 20.25 C-1.795625 20.8275 -1.40375 21.405 -1 22 C-1 22.99 -1 23.98 -1 25 C-4.16115776 23.63016497 -4.9927092 23.0109362 -7 20 C-7 12.39099321 -3.57975978 6.56836657 0 0 Z " fill="#FFFFFF" transform="translate(30,0)"/>
<path d="M0 0 C1.39601057 2.31356198 2.35920455 4.26489208 3.3125 6.75 C3.57611328 7.37132812 3.83972656 7.99265625 4.11132812 8.6328125 C5.55138605 12.17872137 6.50413447 15.17529978 6 19 C4 21.8125 4 21.8125 2 24 C1.01 23.67 0.02 23.34 -1 23 C-0.4740625 22.2265625 -0.4740625 22.2265625 0.0625 21.4375 C1.40268289 17.9530245 0.80975043 15.61273271 0 12 C-0.95394836 9.97762948 -1.94535351 7.9717304 -3 6 C-3 5.34 -3 4.68 -3 4 C-5.30387273 4.67973269 -7.5883841 5.39113502 -9.875 6.125 C-10.52597656 6.31320313 -11.17695312 6.50140625 -11.84765625 6.6953125 C-14.02679746 7.35932805 -14.02679746 7.35932805 -17 9 C-18.53120963 12.04462127 -18.53120963 12.04462127 -19 15 C-19.66 15 -20.32 15 -21 15 C-21.49116667 8.61483333 -21.49116667 8.61483333 -19.35546875 5.94140625 C-16.70439641 3.75635989 -14.23027481 2.5097364 -11.0625 1.1875 C-9.53302734 0.52814453 -9.53302734 0.52814453 -7.97265625 -0.14453125 C-4.6574483 -1.09857927 -3.15132718 -1.43290212 0 0 Z " fill="#FFFFFF" transform="translate(73,1)"/>
<path d="M0 0 C2.359375 1.7421875 2.359375 1.7421875 4.75 3.875 C5.54921875 4.57367188 6.3484375 5.27234375 7.171875 5.9921875 C9 8 9 8 9 11 C3.39 11 -2.22 11 -8 11 C-11 5 -11 5 -11.0625 2.75 C-10 1 -10 1 -7.1875 -0.3125 C-3.97128639 -1.00619313 -2.97512804 -1.11359541 0 0 Z " fill="#FFFFFF" transform="translate(39,39)"/>
<path d="M0 0 C5.16666667 1.9375 5.16666667 1.9375 7.5 2.9375 C6.44124926 6.34062738 5.49097846 8.95103231 3.5 11.9375 C0.54935852 12.1583564 -2.18368231 12.21810989 -5.125 12.125 C-5.92679688 12.11146484 -6.72859375 12.09792969 -7.5546875 12.08398438 C-9.53674378 12.04859051 -11.51845551 11.99478234 -13.5 11.9375 C-11.52122597 9.58502682 -9.5178338 7.25657439 -7.5 4.9375 C-6.654375 3.9475 -5.80875 2.9575 -4.9375 1.9375 C-2.5 -0.0625 -2.5 -0.0625 0 0 Z " fill="#FFFFFF" transform="translate(66.5,38.0625)"/>
<path d="M0 0 C6.40140935 0.46555704 11.26769829 2.14711836 17 5 C16.57530055 10.5210929 14.55599976 15.73459625 11 20 C8.328125 20.76171875 8.328125 20.76171875 6 21 C5.67 20.01 5.34 19.02 5 18 C5.99 18 6.98 18 8 18 C8.28875 17.113125 8.5775 16.22625 8.875 15.3125 C9.83148748 12.49617576 10.86798946 9.74916844 12 7 C7.30172858 5.36106811 2.99861936 4 -2 4 C-1.34 2.68 -0.68 1.36 0 0 Z " fill="#FFFFFF" transform="translate(72,30)"/>
<path d="M0 0 C0.33 1.32 0.66 2.64 1 4 C-0.051875 4.12375 -1.10375 4.2475 -2.1875 4.375 C-6.28786036 4.9060597 -6.28786036 4.9060597 -11 7 C-10.01 10.63 -9.02 14.26 -8 18 C-7.01 18 -6.02 18 -5 18 C-5.33 18.99 -5.66 19.98 -6 21 C-10.37816922 19.66491944 -12.02897418 18.1231892 -14.3125 14.1875 C-15.08013672 12.90939453 -15.08013672 12.90939453 -15.86328125 11.60546875 C-17.0734434 8.83166067 -17.23083283 6.99009036 -17 4 C-5.47835991 -0.59225513 -5.47835991 -0.59225513 0 0 Z " fill="#FFFFFF" transform="translate(30,30)"/>
<path d="M0 0 C2.475 0.495 2.475 0.495 5 1 C4.67 2.32 4.34 3.64 4 5 C2.68 5 1.36 5 0 5 C0 3.35 0 1.7 0 0 Z " fill="#FFFFFF" transform="translate(59,22)"/>
<path d="M0 0 C1.65 0 3.3 0 5 0 C4.67 1.65 4.34 3.3 4 5 C2.68 4.67 1.36 4.34 0 4 C0 2.68 0 1.36 0 0 Z " fill="#FFFFFF" transform="translate(38,22)"/>
<path d="M0 0 C0.66 0.33 1.32 0.66 2 1 C1.67 2.65 1.34 4.3 1 6 C0.01 6 -0.98 6 -2 6 C-2.33 4.68 -2.66 3.36 -3 2 C-2.01 1.34 -1.02 0.68 0 0 Z " fill="#FFFFFF" transform="translate(25,37)"/>
<path d="M0 0 C2.475 0.495 2.475 0.495 5 1 C4.67 2.32 4.34 3.64 4 5 C2.68 4.67 1.36 4.34 0 4 C0 2.68 0 1.36 0 0 Z " fill="#FFFFFF" transform="translate(75,38)"/>
</svg>
